<!-- Generator: Adobe Illustrator 19.2.1, SVG Export Plug-In  -->
<svg version="1.1"
	 xmlns="http://www.w3.org/2000/svg" xmlns:xlink="http://www.w3.org/1999/xlink" xmlns:a="http://ns.adobe.com/AdobeSVGViewerExtensions/3.0/"
	 x="0px" y="0px" width="128.763px" height="105.284px" viewBox="0 0 128.763 105.284"
	 style="enable-background:new 0 0 128.763 105.284;" xml:space="preserve">
<style type="text/css">
	.st0{fill:#6A7632;}
	.st1{fill:none;}
	.st2{fill:#F7941E;}
</style>
<defs>
</defs>
<g>
	<path class="st0" d="M0,92.313h8.165v2.037H2.251v3.323h5.574v2.037H2.251v5.253H0V92.313z"/>
	<path class="st0" d="M10.255,92.313h2.251v10.613h5.378v2.037h-7.629V92.313z"/>
	<path class="st0" d="M19.528,92.313h8.379v2.037h-6.128v3.109h5.807v2.037h-5.807v3.43h6.45v2.037h-8.701V92.313z"/>
	<path class="st0" d="M30.444,92.313h8.379v2.037h-6.128v3.109h5.807v2.037h-5.807v3.43h6.45v2.037h-8.701V92.313z"/>
	<path class="st0" d="M43.951,94.35h-3.877v-2.037h10.005v2.037h-3.877v10.613h-2.251V94.35z"/>
	<path class="st0" d="M53.206,104.962h-1.286v-12.65h7.629v1.179h-6.343v4.306h5.896v1.179h-5.896V104.962z"/>
	<path class="st0" d="M60.656,104.962h-1.501l5.503-12.65h1.251l5.503,12.65h-1.501l-1.394-3.323H62.05L60.656,104.962z
		 M62.532,100.46h5.485l-2.733-6.646L62.532,100.46z"/>
	<path class="st0" d="M74.413,104.962h-1.286v-12.65h3.895c1.286,0,2.302,0.28,3.046,0.84c0.744,0.56,1.117,1.406,1.117,2.537
		c0,0.882-0.277,1.623-0.831,2.224c-0.554,0.602-1.355,0.95-2.403,1.045l3.645,6.003h-1.572l-3.466-5.878h-2.144V104.962z
		 M74.413,97.905H76.7c0.572,0,1.057-0.06,1.456-0.179c0.399-0.119,0.717-0.277,0.956-0.474c0.238-0.197,0.411-0.429,0.518-0.697
		s0.161-0.557,0.161-0.866c0-0.298-0.053-0.581-0.161-0.849c-0.107-0.268-0.28-0.503-0.518-0.706
		c-0.239-0.203-0.557-0.36-0.956-0.474c-0.399-0.113-0.884-0.17-1.456-0.17h-2.287V97.905z"/>
	<path class="st0" d="M89.957,102.604l4.27-10.291h1.966v12.65h-1.287V94.028H94.87l-4.574,10.934h-0.679l-4.574-10.934h-0.036
		v10.934h-1.286v-12.65h1.965L89.957,102.604z"/>
	<path class="st0" d="M100.909,104.962h-1.286v-12.65h1.286V104.962z"/>
	<path class="st0" d="M113.487,103.033h0.036v-10.72h1.287v12.65h-1.608l-7.54-10.827h-0.036v10.827h-1.286v-12.65h1.608
		L113.487,103.033z"/>
	<path class="st0" d="M127.583,94.635c-0.429-0.453-0.941-0.81-1.536-1.072c-0.596-0.262-1.287-0.393-2.073-0.393
		c-0.81,0-1.536,0.149-2.18,0.447c-0.643,0.298-1.188,0.697-1.635,1.197c-0.447,0.5-0.789,1.081-1.027,1.742
		c-0.238,0.661-0.357,1.355-0.357,2.081c0,0.727,0.119,1.421,0.357,2.081c0.238,0.661,0.581,1.242,1.027,1.742
		c0.447,0.5,0.992,0.899,1.635,1.197c0.643,0.298,1.369,0.447,2.18,0.447c0.655,0,1.283-0.08,1.885-0.241
		c0.601-0.161,1.14-0.378,1.617-0.652v-4.234h-3.019v-1.179h4.306v6.2c-0.715,0.417-1.498,0.736-2.35,0.956
		c-0.852,0.22-1.665,0.331-2.439,0.331c-0.941,0-1.813-0.167-2.618-0.501c-0.804-0.333-1.501-0.795-2.09-1.384
		c-0.589-0.59-1.051-1.289-1.385-2.1c-0.333-0.81-0.5-1.697-0.5-2.662c0-0.965,0.167-1.852,0.5-2.662
		c0.333-0.81,0.795-1.51,1.385-2.099c0.59-0.59,1.287-1.051,2.09-1.385c0.804-0.333,1.677-0.5,2.618-0.5
		c1.012,0,1.885,0.14,2.618,0.42c0.732,0.28,1.384,0.706,1.956,1.277L127.583,94.635z"/>
</g>
<g>
	<g>
		<path class="st1" d="M69.032,50.914l-2.537-0.932c-0.162,0.299-0.37,0.575-0.606,0.835l1.728,2.072
			C68.21,52.3,68.691,51.639,69.032,50.914z"/>
	</g>
	<g>
		<path class="st1" d="M69.464,49.765c0.214-0.791,0.288-1.613,0.221-2.43l-2.68,0.464c0.009,0.346-0.022,0.689-0.095,1.028
			L69.464,49.765z"/>
	</g>
	<g>
		<path class="st1" d="M70.626,50.192l18.556,6.816c0.718-2.104,1.219-4.295,1.424-6.565c0.205-2.263,0.106-4.503-0.22-6.695
			l-19.48,3.376C71.005,48.154,70.91,49.197,70.626,50.192z"/>
	</g>
	<g>
		<path class="st1" d="M59.699,54.258l0.461-1.255l-1.076,0.895C59.287,54.022,59.483,54.157,59.699,54.258z"/>
	</g>
	<g>
		<path class="st1" d="M69.47,46.128c-0.06-0.228-0.158-0.445-0.243-0.666l-1.076,0.895L69.47,46.128z"/>
	</g>
	<g>
		<path class="st1" d="M64.688,55.928l3.382,19.517c4.377-0.848,8.5-2.752,12.082-5.61L67.478,54.64
			C66.626,55.249,65.683,55.681,64.688,55.928z"/>
	</g>
	<g>
		<path class="st1" d="M70.196,51.342c-0.418,0.922-1.01,1.776-1.774,2.513l12.665,15.183c3.449-3.002,6.067-6.714,7.693-10.87
			L70.196,51.342z"/>
	</g>
	<g>
		<path class="st1" d="M61.799,56.129c0,0,0,0-0.001,0c-0.471-0.051-0.93-0.148-1.377-0.275l-6.817,18.56
			c1.948,0.665,3.971,1.144,6.061,1.37c2.432,0.264,4.845,0.212,7.196-0.136L63.48,56.143
			C62.928,56.194,62.365,56.191,61.799,56.129z"/>
	</g>
	<g>
		<path class="st1" d="M66.692,53.698l-1.749-2.096c-0.298,0.183-0.607,0.336-0.93,0.44l0.464,2.675
			C65.264,54.51,66.012,54.171,66.692,53.698z"/>
	</g>
	<g>
		<path class="st1" d="M63.269,54.926l-0.467-2.693c-0.343,0.009-0.682-0.022-1.017-0.094l-0.936,2.548
			c0.353,0.096,0.71,0.183,1.081,0.223C62.381,54.958,62.828,54.961,63.269,54.926z"/>
	</g>
	<g>
		<path d="M30.203,42.736c-0.453,2.83-0.537,5.706-0.244,8.566C29.667,48.444,29.754,45.563,30.203,42.736z"/>
	</g>
	<g>
		<path d="M30.134,52.945L30.134,52.945l0.208,1.209l0.003-0.001c0.105,0.548,0.251,1.09,0.386,1.633
			c-0.345-1.41-0.594-2.836-0.75-4.269C30.034,51.994,30.062,52.471,30.134,52.945z"/>
	</g>
	<g>
		<path d="M36.566,67.941c0.152,0.197,0.292,0.4,0.449,0.595l0.009-0.008C36.868,68.334,36.717,68.137,36.566,67.941z"/>
	</g>
	<g>
		<path class="st0" d="M89.411,28.672l-3.794,3.156c2.285,3.242,3.836,6.876,4.58,10.707l-19.505,3.381
			c-0.11-0.442-0.269-0.873-0.453-1.297l-1.013,0.842c0.085,0.221,0.183,0.439,0.243,0.666l-1.319,0.229l-7.991,6.647l-0.461,1.255
			c-0.216-0.102-0.412-0.237-0.615-0.36l-1.016,0.845c0.383,0.259,0.78,0.496,1.2,0.687L52.45,73.996
			c-3.656-1.431-6.971-3.622-9.755-6.466l-3.787,3.15c3.418,3.578,7.473,6.238,11.846,7.934l-0.002,0.006l0.487,0.179
			c0.174,0.064,0.347,0.131,0.521,0.192l0.144,0.053l0.002-0.005c2.349,0.811,4.774,1.358,7.231,1.625
			c2.841,0.308,5.72,0.24,8.561-0.194l0,0.001l0.105-0.018c5.504-0.859,10.853-3.126,15.494-6.851l0.001,0.001l0.028-0.023
			c0.154-0.124,0.312-0.241,0.465-0.368c0.142-0.118,0.275-0.243,0.414-0.364l0.036-0.03l-0.001-0.001
			C97.198,61.609,99.327,42.412,89.411,28.672z M90.387,43.747c0.326,2.192,0.425,4.432,0.22,6.695
			c-0.205,2.27-0.707,4.462-1.424,6.565l-18.556-6.816c0.284-0.996,0.378-2.038,0.28-3.069L90.387,43.747z M69.685,47.335
			c0.067,0.817-0.007,1.639-0.221,2.43l-2.553-0.938c0.073-0.338,0.104-0.682,0.095-1.028L69.685,47.335z M66.494,49.983
			l2.537,0.932c-0.341,0.725-0.821,1.386-1.415,1.975l-1.728-2.072C66.124,50.558,66.332,50.282,66.494,49.983z M64.944,51.601
			l1.749,2.096c-0.681,0.473-1.429,0.813-2.215,1.019l-0.464-2.675C64.337,51.938,64.646,51.784,64.944,51.601z M61.785,52.139
			c0.335,0.072,0.675,0.103,1.017,0.094l0.467,2.693c-0.441,0.035-0.889,0.033-1.339-0.016c-0.37-0.04-0.727-0.127-1.081-0.223
			L61.785,52.139z M59.665,75.785c-2.09-0.227-4.113-0.706-6.061-1.37l6.817-18.56c0.448,0.127,0.906,0.224,1.377,0.275
			c0.001,0,0.001,0,0.001,0c0.566,0.061,1.128,0.065,1.681,0.013l3.381,19.506C64.51,75.997,62.097,76.049,59.665,75.785z
			 M68.07,75.444l-3.382-19.517c0.995-0.247,1.939-0.679,2.791-1.288l12.674,15.194C76.57,72.692,72.447,74.597,68.07,75.444z
			 M81.086,69.038L68.421,53.855c0.764-0.737,1.356-1.591,1.774-2.513l18.584,6.825C87.153,62.324,84.535,66.036,81.086,69.038z"/>
	</g>
	<g>
		<path class="st0" d="M43.436,33.678c-0.611,0.937-1.261,1.996-1.924,3.181c-0.319,0.571,0.444,1.137,0.878,0.648
			c1.699-1.909,3.973-4.045,6.719-5.656l3.941,5.119c0.468,0.607,1.431,0.128,1.228-0.611l-1.883-6.878
			c-0.365,0.347,1.269-1.87,4.008-4.696c0.616-0.636-0.18-1.631-0.931-1.163l-6.83,4.256c-0.132-0.414-0.265-0.825-0.404-1.215
			c0.012-3.522,0.284-6.358,0.662-8.641c13.018-6,28.912-2.923,38.667,8.346l0.002-0.001l0.07,0.084
			c0.084,0.098,0.168,0.196,0.253,0.293l0.015-0.012c-5.684-6.766-13.515-10.677-21.663-11.56
			c-5.842-0.633-11.846,0.291-17.34,2.826c0.942-5.677,2.552-7.817,2.552-7.817c1.967-2.863,4.387-3.635,6.089-3.774
			c1.492-0.122,2.635-1.455,2.432-2.939c-0.005-0.037-0.01-0.074-0.016-0.111c-0.442-2.847-3.816-4.285-6.222-2.701
			C50.85,2.556,47.9,7.293,47.9,7.293c-2.535,3.605-2.612,8.302-1.985,12.275c-0.336,0.199-0.666,0.411-0.996,0.624
			c-3.123-4.277-6.863-5.715-9.893-6.044c-5.276-0.572-9.737,1.88-9.903,1.972c-9.759,4.927-13.574,6.019-13.612,6.029
			c-0.184,0.052-0.335,0.188-0.405,0.366c-0.071,0.178-0.054,0.38,0.045,0.544c5.48,9.036,11.701,13.991,18.491,14.728
			c0.577,0.063,1.141,0.076,1.701,0.079c-0.192,0.599-0.344,1.208-0.501,1.816c0.156-0.609,0.323-1.215,0.514-1.816
			C36.181,37.887,40.377,35.832,43.436,33.678z M45.918,19.585c0.192,1.21,0.446,2.354,0.72,3.377
			c-0.541-1.035-1.115-1.942-1.71-2.758C45.257,19.993,45.585,19.782,45.918,19.585z"/>
	</g>
	<g>
		<path class="st2" d="M87.64,26.45l-0.07-0.084l-0.002,0.001c-9.756-11.269-25.649-14.346-38.667-8.346
			c-0.377,2.283-0.65,5.119-0.662,8.641c0.14,0.39,0.272,0.801,0.404,1.215l6.83-4.256c0.751-0.468,1.548,0.527,0.931,1.163
			c-2.739,2.826-4.373,5.043-4.008,4.696l1.883,6.878c0.202,0.739-0.761,1.219-1.228,0.611l-3.941-5.119
			c-2.746,1.612-5.02,3.747-6.719,5.656c-0.435,0.488-1.198-0.078-0.878-0.648c0.663-1.185,1.313-2.245,1.924-3.181
			c-3.06,2.154-7.256,4.209-12.08,4.188c-0.191,0.6-0.358,1.207-0.514,1.816c-0.057,0.223-0.123,0.443-0.176,0.667
			c-0.141,0.598-0.259,1.201-0.366,1.806c-0.034,0.194-0.067,0.387-0.098,0.581c-0.449,2.828-0.536,5.709-0.244,8.566
			c0.007,0.072,0.015,0.144,0.023,0.216c0.156,1.433,0.404,2.859,0.75,4.269c0.009,0.035,0.016,0.071,0.025,0.106
			c0.159,0.639,0.343,1.273,0.541,1.905c0.058,0.186,0.12,0.37,0.182,0.555c0.179,0.536,0.37,1.069,0.577,1.598
			c0.13,0.332,0.276,0.658,0.417,0.987c0.175,0.406,0.346,0.813,0.538,1.214c0.359,0.748,0.743,1.488,1.162,2.215
			c0.086,0.148,0.168,0.298,0.256,0.445c0.193,0.322,0.396,0.64,0.601,0.957c0.136,0.21,0.273,0.419,0.414,0.626
			c0.197,0.29,0.398,0.578,0.606,0.863c0.167,0.23,0.341,0.456,0.515,0.683c0.151,0.197,0.302,0.393,0.458,0.587l-0.009,0.008
			l-0.011,0.009l0.259,0.312l50.631-42.114C87.808,26.646,87.724,26.548,87.64,26.45z M66.699,20.207
			c-0.548-0.059-0.944-0.552-0.885-1.1s0.552-0.944,1.1-0.885c0.548,0.059,0.944,0.552,0.885,1.1S67.247,20.267,66.699,20.207z
			 M68.765,22.851c-0.548-0.059-0.944-0.552-0.885-1.1c0.059-0.548,0.552-0.944,1.1-0.885c0.548,0.059,0.944,0.552,0.885,1.1
			C69.806,22.515,69.313,22.911,68.765,22.851z M72.001,20.782c-0.548-0.059-0.944-0.552-0.885-1.1s0.552-0.944,1.1-0.885
			c0.548,0.059,0.944,0.552,0.885,1.1C73.042,20.446,72.549,20.842,72.001,20.782z M74.503,23.168
			c-0.548-0.059-0.944-0.552-0.885-1.1c0.059-0.548,0.552-0.944,1.1-0.885c0.548,0.059,0.944,0.552,0.885,1.1
			C75.543,22.832,75.051,23.228,74.503,23.168z"/>
	</g>
	<g>
		<path class="st2" d="M45.918,19.585c-0.334,0.198-0.662,0.408-0.99,0.619c0.595,0.816,1.169,1.723,1.71,2.758
			C46.365,21.939,46.11,20.794,45.918,19.585z"/>
	</g>
	<g>
		
			<ellipse transform="matrix(0.1078 -0.9942 0.9942 0.1078 40.5013 83.5608)" class="st0" cx="66.806" cy="19.215" rx="0.998" ry="0.998"/>
	</g>
	<g>
		
			<ellipse transform="matrix(0.1078 -0.9942 0.9942 0.1078 44.6606 89.3454)" class="st0" cx="72.109" cy="19.79" rx="0.998" ry="0.998"/>
	</g>
	<g>
		
			<ellipse transform="matrix(0.1078 -0.9942 0.9942 0.1078 44.5207 93.9613)" class="st0" cx="74.61" cy="22.176" rx="0.998" ry="0.998"/>
	</g>
	<g>
		
			<ellipse transform="matrix(0.1078 -0.9942 0.9942 0.1078 39.7165 87.9744)" class="st0" cx="68.873" cy="21.859" rx="0.998" ry="0.998"/>
	</g>
	<g>
	</g>
</g>
</svg>