<!-- Generator: Adobe Illustrator 19.2.1, SVG Export Plug-In  -->
<svg version="1.1"
	 xmlns="http://www.w3.org/2000/svg" xmlns:xlink="http://www.w3.org/1999/xlink" xmlns:a="http://ns.adobe.com/AdobeSVGViewerExtensions/3.0/"
	 x="0px" y="0px" width="84.557px" height="80.854px" viewBox="0 0 84.557 80.854"
	 style="enable-background:new 0 0 84.557 80.854;" xml:space="preserve">
<style type="text/css">
	.st0{fill:none;}
	.st1{fill:#FFFFFF;}
	.st2{fill:#6A7632;}
</style>
<defs>
</defs>
<g>
	<path class="st0" d="M57.968,50.914l-2.537-0.932c-0.162,0.299-0.37,0.575-0.606,0.835l1.728,2.072
		C57.147,52.3,57.627,51.639,57.968,50.914z"/>
	<path class="st0" d="M52.206,54.926l-0.467-2.693c-0.343,0.009-0.682-0.022-1.017-0.094l-0.936,2.548
		c0.353,0.096,0.71,0.183,1.081,0.223C51.317,54.958,51.765,54.961,52.206,54.926z"/>
	<path class="st0" d="M55.629,53.698l-1.749-2.096c-0.298,0.183-0.607,0.336-0.93,0.44l0.464,2.675
		C54.2,54.51,54.948,54.171,55.629,53.698z"/>
	<path class="st0" d="M58.622,47.335l-2.68,0.464c0.009,0.346-0.022,0.689-0.095,1.028l2.553,0.938
		C58.615,48.974,58.688,48.152,58.622,47.335z"/>
	<path class="st0" d="M79.544,50.442c0.205-2.263,0.106-4.503-0.22-6.695l-19.48,3.376c0.098,1.031,0.003,2.073-0.28,3.069
		l18.556,6.816C78.837,54.904,79.338,52.713,79.544,50.442z"/>
	<path class="st0" d="M50.736,56.13c0,0,0,0-0.001,0c-0.471-0.051-0.93-0.148-1.377-0.275l-6.817,18.56
		c1.948,0.665,3.971,1.144,6.061,1.37c2.432,0.264,4.845,0.212,7.196-0.136l-3.38-19.506C51.864,56.194,51.301,56.191,50.736,56.13z
		"/>
	<path class="st0" d="M59.132,51.342c-0.418,0.922-1.01,1.776-1.774,2.513l12.665,15.183c3.449-3.002,6.067-6.714,7.693-10.87
		L59.132,51.342z"/>
	<path class="st0" d="M53.624,55.928l3.382,19.517c4.377-0.848,8.5-2.752,12.082-5.61L56.415,54.64
		C55.563,55.249,54.619,55.681,53.624,55.928z"/>
	<path d="M19.14,42.736c-0.453,2.83-0.536,5.706-0.244,8.566C18.604,48.444,18.691,45.563,19.14,42.736z"/>
	<path d="M19.071,52.945L19.071,52.945l0.208,1.209l0.003-0.001c0.105,0.548,0.251,1.09,0.385,1.633
		c-0.345-1.41-0.594-2.836-0.75-4.269C18.97,51.994,18.998,52.471,19.071,52.945z"/>
	<path d="M25.502,67.941c0.152,0.197,0.292,0.4,0.449,0.595l0.009-0.008C25.804,68.334,25.653,68.137,25.502,67.941z"/>
	<path class="st1" d="M78.348,28.672l-3.794,3.156c2.285,3.242,3.836,6.876,4.58,10.707L59.63,45.916
		c-0.11-0.442-0.269-0.873-0.453-1.297l-1.013,0.842c0.085,0.221,0.183,0.439,0.243,0.666l-1.319,0.229l-7.991,6.647l-0.461,1.255
		c-0.216-0.102-0.412-0.237-0.615-0.36l-1.016,0.845c0.383,0.259,0.78,0.496,1.2,0.687l-6.819,18.566
		c-3.656-1.431-6.971-3.622-9.755-6.466l-3.787,3.15c3.418,3.578,7.473,6.238,11.846,7.934l-0.002,0.006l0.487,0.179
		c0.174,0.064,0.347,0.131,0.521,0.192l0.144,0.053l0.002-0.005c2.349,0.811,4.774,1.358,7.231,1.625
		c2.841,0.308,5.72,0.24,8.561-0.194l0,0.001l0.105-0.018c5.504-0.859,10.853-3.126,15.494-6.851l0.001,0.001l0.028-0.023
		c0.154-0.124,0.312-0.241,0.465-0.368c0.142-0.118,0.275-0.243,0.414-0.364l0.036-0.03l-0.001-0.001
		C86.134,61.609,88.263,42.412,78.348,28.672z M59.843,47.124l19.48-3.376c0.326,2.192,0.425,4.432,0.22,6.695
		c-0.205,2.27-0.707,4.462-1.424,6.565l-18.556-6.816C59.847,49.197,59.941,48.154,59.843,47.124z M55.942,47.8l2.68-0.464
		c0.067,0.817-0.007,1.639-0.221,2.43l-2.553-0.938C55.92,48.489,55.951,48.146,55.942,47.8z M55.431,49.983l2.537,0.932
		c-0.341,0.725-0.821,1.386-1.415,1.975l-1.728-2.072C55.06,50.558,55.269,50.282,55.431,49.983z M53.88,51.601l1.749,2.096
		c-0.681,0.473-1.429,0.812-2.215,1.019l-0.464-2.675C53.274,51.938,53.582,51.784,53.88,51.601z M50.722,52.139
		c0.335,0.072,0.675,0.103,1.017,0.094l0.467,2.693c-0.441,0.035-0.889,0.033-1.339-0.016c-0.37-0.04-0.727-0.127-1.081-0.223
		L50.722,52.139z M48.601,75.785c-2.09-0.227-4.113-0.706-6.061-1.37l6.817-18.56c0.448,0.127,0.906,0.224,1.377,0.275
		c0.001,0,0.001,0,0.001,0c0.566,0.061,1.128,0.065,1.681,0.013l3.38,19.506C53.447,75.997,51.033,76.049,48.601,75.785z
		 M57.007,75.444l-3.382-19.517c0.995-0.247,1.939-0.679,2.791-1.288l12.674,15.194C65.506,72.692,61.383,74.597,57.007,75.444z
		 M70.022,69.038L57.358,53.855c0.764-0.737,1.356-1.591,1.774-2.513l18.584,6.825C76.089,62.324,73.472,66.036,70.022,69.038z"/>
	
		<ellipse transform="matrix(0.1078 -0.9942 0.9942 0.1078 34.6505 82.9626)" class="st2" cx="63.547" cy="22.176" rx="0.998" ry="0.998"/>
	<path class="st1" d="M55.181,15.171c-5.842-0.633-11.846,0.291-17.34,2.826c0.942-5.677,2.552-7.817,2.552-7.817
		c1.967-2.863,4.387-3.635,6.089-3.774c1.492-0.122,2.635-1.455,2.432-2.939c-0.005-0.037-0.01-0.074-0.016-0.111
		c-0.442-2.846-3.816-4.285-6.222-2.701c-2.889,1.901-5.839,6.638-5.839,6.638c-2.535,3.605-2.612,8.302-1.985,12.275
		c-0.336,0.199-0.666,0.411-0.996,0.624c-3.123-4.277-6.863-5.715-9.893-6.044c-5.276-0.572-9.737,1.88-9.903,1.972
		c-9.759,4.927-13.574,6.019-13.612,6.029c-0.184,0.052-0.335,0.188-0.405,0.366c-0.071,0.178-0.054,0.38,0.045,0.544
		c5.48,9.036,11.701,13.992,18.491,14.728c0.577,0.063,1.141,0.076,1.701,0.079c-0.192,0.599-0.344,1.208-0.501,1.816
		c-0.057,0.223-0.123,0.443-0.176,0.667c-0.141,0.598-0.259,1.201-0.366,1.806c-0.034,0.194-0.067,0.387-0.098,0.581
		c-0.449,2.828-0.536,5.708-0.244,8.566c0.007,0.072,0.015,0.144,0.023,0.216c0.156,1.433,0.404,2.859,0.75,4.269
		c0.009,0.035,0.016,0.071,0.025,0.106c0.159,0.639,0.343,1.273,0.541,1.905c0.058,0.186,0.12,0.37,0.182,0.555
		c0.179,0.536,0.37,1.069,0.577,1.598c0.13,0.332,0.276,0.658,0.417,0.987c0.175,0.406,0.346,0.813,0.538,1.214
		c0.359,0.748,0.743,1.489,1.162,2.215c0.086,0.148,0.168,0.298,0.256,0.445c0.193,0.322,0.396,0.64,0.601,0.957
		c0.136,0.21,0.273,0.419,0.414,0.626c0.197,0.29,0.398,0.578,0.606,0.863c0.167,0.23,0.341,0.456,0.515,0.683
		c0.151,0.197,0.302,0.393,0.458,0.587l-0.009,0.008l-0.011,0.009l0.259,0.312L76.83,26.743l0.015-0.012
		C71.161,19.965,63.33,16.055,55.181,15.171z"/>
</g>
</svg>