<!-- Generator: Adobe Illustrator 19.2.1, SVG Export Plug-In  -->
<svg version="1.1"
	 xmlns="http://www.w3.org/2000/svg" xmlns:xlink="http://www.w3.org/1999/xlink" xmlns:a="http://ns.adobe.com/AdobeSVGViewerExtensions/3.0/"
	 x="0px" y="0px" width="273.046px" height="36.436px" viewBox="0 0 273.046 36.436"
	 style="enable-background:new 0 0 273.046 36.436;" xml:space="preserve">
<style type="text/css">
	.st0{fill:#6A7632;}
	.st1{fill:none;}
	.st2{fill:#F7941E;}
</style>
<defs>
</defs>
<g>
	<path class="st0" d="M0,10.13h14.515v3.621H4.002v5.907h9.909v3.621H4.002v9.338H0V10.13z"/>
	<path class="st0" d="M18.23,10.13h4.002v18.866h9.56v3.62H18.23V10.13z"/>
	<path class="st0" d="M34.714,10.13H49.61v3.621H38.716v5.527h10.322v3.62H38.716v6.098h11.466v3.62H34.714V10.13z"/>
	<path class="st0" d="M54.12,10.13h14.896v3.621H58.121v5.527h10.323v3.62H58.121v6.098h11.466v3.62H54.12V10.13z"/>
	<path class="st0" d="M78.131,13.751h-6.892V10.13h17.786v3.621h-6.892v18.866h-4.002V13.751z"/>
	<path class="st0" d="M138.73,32.616h-2.287V10.13h13.562v2.097H138.73v7.654h10.481v2.096H138.73V32.616z"/>
	<path class="st0" d="M151.975,32.616h-2.668l9.783-22.487h2.223l9.783,22.487h-2.668l-2.477-5.908h-11.498L151.975,32.616z
		 M155.31,24.613h9.751l-4.86-11.815L155.31,24.613z"/>
	<path class="st0" d="M176.43,32.616h-2.287V10.13h6.923c2.287,0,4.092,0.498,5.415,1.493c1.323,0.996,1.985,2.498,1.985,4.51
		c0,1.568-0.492,2.886-1.477,3.954c-0.984,1.07-2.409,1.689-4.272,1.858l6.479,10.672h-2.795l-6.162-10.449h-3.811V32.616z
		 M176.43,20.071h4.065c1.016,0,1.879-0.106,2.589-0.318c0.709-0.212,1.275-0.492,1.699-0.842c0.423-0.349,0.731-0.762,0.921-1.239
		c0.191-0.476,0.286-0.989,0.286-1.541c0-0.529-0.096-1.032-0.286-1.509c-0.191-0.476-0.498-0.894-0.921-1.254
		c-0.423-0.36-0.99-0.64-1.699-0.842c-0.71-0.201-1.572-0.301-2.589-0.301h-4.065V20.071z"/>
	<path class="st0" d="M204.062,28.424l7.591-18.295h3.494v22.487h-2.287V13.179h-0.064l-8.131,19.438h-1.207l-8.131-19.438h-0.063
		v19.438h-2.287V10.13h3.494L204.062,28.424z"/>
	<path class="st0" d="M223.531,32.616h-2.287V10.13h2.287V32.616z"/>
	<path class="st0" d="M245.891,29.186h0.063V10.13h2.287v22.487h-2.859l-13.403-19.247h-0.063v19.247h-2.287V10.13h2.859
		L245.891,29.186z"/>
	<path class="st0" d="M270.95,14.259c-0.762-0.805-1.673-1.44-2.732-1.906c-1.059-0.465-2.287-0.699-3.684-0.699
		c-1.44,0-2.732,0.265-3.875,0.794c-1.144,0.53-2.112,1.239-2.906,2.128c-0.794,0.889-1.403,1.922-1.826,3.097
		c-0.424,1.176-0.636,2.409-0.636,3.7c0,1.292,0.212,2.525,0.636,3.7c0.423,1.176,1.032,2.207,1.826,3.097
		c0.794,0.889,1.762,1.599,2.906,2.128c1.143,0.53,2.435,0.794,3.875,0.794c1.164,0,2.281-0.143,3.35-0.429
		c1.069-0.286,2.028-0.672,2.875-1.159v-7.528h-5.368V19.88h7.655v11.021c-1.271,0.741-2.663,1.307-4.177,1.699
		c-1.514,0.391-2.959,0.587-4.335,0.587c-1.673,0-3.224-0.297-4.653-0.889c-1.429-0.593-2.668-1.414-3.716-2.462
		c-1.048-1.048-1.869-2.292-2.462-3.732c-0.593-1.44-0.889-3.017-0.889-4.732c0-1.715,0.296-3.292,0.889-4.732
		c0.593-1.44,1.414-2.684,2.462-3.732c1.048-1.048,2.287-1.868,3.716-2.461c1.429-0.593,2.98-0.889,4.653-0.889
		c1.799,0,3.35,0.249,4.653,0.746c1.302,0.498,2.462,1.254,3.478,2.271L270.95,14.259z"/>
</g>
<g>
	<g>
		<path class="st1" d="M117.859,22.944l-1.143-0.42c-0.073,0.135-0.167,0.259-0.273,0.376l0.779,0.934
			C117.489,23.568,117.706,23.27,117.859,22.944z"/>
	</g>
	<g>
		<path class="st1" d="M118.054,22.426c0.097-0.356,0.13-0.727,0.1-1.095l-1.208,0.209c0.004,0.156-0.01,0.311-0.043,0.463
			L118.054,22.426z"/>
	</g>
	<g>
		<path class="st1" d="M118.578,22.618l8.362,3.071c0.323-0.948,0.549-1.936,0.642-2.959c0.092-1.02,0.048-2.029-0.099-3.017
			l-8.778,1.521C118.749,21.7,118.706,22.17,118.578,22.618z"/>
	</g>
	<g>
		<path class="st1" d="M113.654,24.451l0.208-0.566l-0.485,0.403C113.468,24.344,113.557,24.405,113.654,24.451z"/>
	</g>
	<g>
		<path class="st1" d="M118.057,20.787c-0.027-0.103-0.071-0.201-0.109-0.3l-0.485,0.403L118.057,20.787z"/>
	</g>
	<g>
		<path class="st1" d="M115.902,25.203l1.524,8.795c1.972-0.382,3.83-1.24,5.445-2.528l-5.711-6.847
			C116.775,24.897,116.35,25.092,115.902,25.203z"/>
	</g>
	<g>
		<path class="st1" d="M118.384,23.136c-0.189,0.415-0.455,0.8-0.8,1.132l5.707,6.842c1.554-1.353,2.734-3.026,3.467-4.899
			L118.384,23.136z"/>
	</g>
	<g>
		<path class="st1" d="M114.6,25.294C114.6,25.294,114.6,25.294,114.6,25.294c-0.213-0.023-0.42-0.067-0.621-0.124l-3.072,8.364
			c0.878,0.3,1.789,0.515,2.731,0.618c1.096,0.119,2.183,0.095,3.243-0.061l-1.523-8.79C115.109,25.323,114.855,25.321,114.6,25.294
			z"/>
	</g>
	<g>
		<path class="st1" d="M116.805,24.198l-0.788-0.945c-0.134,0.082-0.273,0.152-0.419,0.198l0.209,1.205
			C116.161,24.564,116.498,24.411,116.805,24.198z"/>
	</g>
	<g>
		<path class="st1" d="M115.263,24.751l-0.21-1.213c-0.154,0.004-0.307-0.01-0.458-0.042l-0.422,1.148
			c0.159,0.043,0.32,0.082,0.487,0.1C114.862,24.766,115.064,24.767,115.263,24.751z"/>
	</g>
	<g>
		<path d="M100.362,19.258c-0.204,1.275-0.242,2.571-0.11,3.86C100.12,21.831,100.16,20.532,100.362,19.258z"/>
	</g>
	<g>
		<path d="M100.331,23.859L100.331,23.859l0.094,0.545l0.002,0c0.047,0.247,0.113,0.491,0.174,0.736
			c-0.156-0.635-0.268-1.278-0.338-1.924C100.286,23.43,100.298,23.645,100.331,23.859z"/>
	</g>
	<g>
		<path d="M103.229,30.616c0.068,0.089,0.132,0.18,0.202,0.268l0.004-0.004C103.365,30.793,103.297,30.705,103.229,30.616z"/>
	</g>
	<g>
		<path class="st0" d="M127.043,12.921l-1.71,1.422c1.03,1.461,1.729,3.098,2.064,4.825l-8.79,1.523
			c-0.049-0.199-0.121-0.394-0.204-0.584l-0.456,0.38c0.038,0.1,0.082,0.198,0.109,0.3l-0.594,0.103l-3.601,2.995l-0.208,0.566
			c-0.097-0.046-0.186-0.107-0.277-0.162l-0.458,0.381c0.172,0.117,0.351,0.224,0.541,0.31l-3.073,8.366
			c-1.647-0.645-3.141-1.632-4.396-2.914l-1.707,1.42c1.54,1.612,3.368,2.811,5.338,3.575l-0.001,0.003l0.219,0.081
			c0.078,0.029,0.156,0.059,0.235,0.086l0.065,0.024l0.001-0.002c1.058,0.366,2.152,0.612,3.258,0.732
			c1.28,0.139,2.578,0.108,3.858-0.087l0,0l0.047-0.008c2.48-0.387,4.891-1.409,6.982-3.087l0,0l0.012-0.01
			c0.07-0.056,0.141-0.108,0.21-0.166c0.064-0.053,0.124-0.11,0.187-0.164l0.016-0.014l0,0
			C130.552,27.763,131.511,19.112,127.043,12.921z M127.483,19.714c0.147,0.988,0.192,1.997,0.099,3.017
			c-0.093,1.023-0.318,2.011-0.642,2.959l-8.362-3.071c0.128-0.449,0.171-0.918,0.126-1.383L127.483,19.714z M118.154,21.331
			c0.03,0.368-0.003,0.739-0.1,1.095l-1.151-0.423c0.033-0.153,0.047-0.307,0.043-0.463L118.154,21.331z M116.716,22.524l1.143,0.42
			c-0.154,0.327-0.37,0.625-0.638,0.89l-0.779-0.934C116.549,22.783,116.643,22.659,116.716,22.524z M116.017,23.253l0.788,0.945
			c-0.307,0.213-0.644,0.366-0.998,0.459l-0.209-1.205C115.744,23.405,115.883,23.336,116.017,23.253z M114.594,23.496
			c0.151,0.032,0.304,0.046,0.458,0.042l0.21,1.213c-0.199,0.016-0.4,0.015-0.603-0.007c-0.167-0.018-0.328-0.057-0.487-0.1
			L114.594,23.496z M113.638,34.151c-0.942-0.102-1.854-0.318-2.731-0.618l3.072-8.364c0.202,0.057,0.408,0.101,0.621,0.124
			c0.001,0,0.001,0,0.001,0c0.255,0.028,0.508,0.029,0.758,0.006l1.523,8.79C115.822,34.247,114.734,34.27,113.638,34.151z
			 M117.426,33.998l-1.524-8.795c0.448-0.111,0.874-0.306,1.258-0.58l5.711,6.847C121.256,32.758,119.398,33.616,117.426,33.998z
			 M123.291,31.111l-5.707-6.842c0.344-0.332,0.611-0.717,0.8-1.132l8.374,3.076C126.025,28.085,124.846,29.758,123.291,31.111z"/>
	</g>
	<g>
		<path class="st0" d="M106.325,15.177c-0.275,0.422-0.568,0.9-0.867,1.434c-0.144,0.257,0.2,0.512,0.396,0.292
			c0.766-0.86,1.79-1.823,3.028-2.549l1.776,2.307c0.211,0.274,0.645,0.058,0.554-0.275l-0.849-3.099
			c-0.164,0.156,0.572-0.843,1.806-2.116c0.278-0.286-0.081-0.735-0.42-0.524l-3.078,1.918c-0.059-0.187-0.119-0.372-0.182-0.547
			c0.005-1.587,0.128-2.865,0.298-3.894c5.867-2.704,13.029-1.317,17.425,3.761l0.001-0.001l0.032,0.038
			c0.038,0.044,0.076,0.088,0.114,0.132l0.007-0.005c-2.561-3.049-6.09-4.811-9.762-5.209c-2.633-0.285-5.338,0.131-7.814,1.274
			c0.424-2.558,1.15-3.523,1.15-3.523c0.886-1.29,1.977-1.638,2.744-1.701c0.673-0.055,1.188-0.656,1.096-1.324
			c-0.002-0.017-0.005-0.033-0.007-0.05c-0.199-1.283-1.719-1.931-2.804-1.217c-1.302,0.857-2.631,2.991-2.631,2.991
			c-1.142,1.625-1.177,3.741-0.894,5.532c-0.151,0.09-0.3,0.185-0.449,0.281c-1.408-1.927-3.092-2.575-4.458-2.723
			c-2.378-0.258-4.388,0.847-4.463,0.889c-4.398,2.22-6.117,2.712-6.134,2.717c-0.083,0.024-0.151,0.085-0.182,0.165
			c-0.032,0.08-0.025,0.171,0.02,0.245c2.47,4.072,5.273,6.305,8.333,6.637c0.26,0.028,0.514,0.034,0.767,0.036
			c-0.087,0.27-0.155,0.544-0.226,0.818c0.071-0.274,0.145-0.548,0.232-0.818C103.056,17.073,104.947,16.147,106.325,15.177z
			 M107.444,8.826c0.086,0.545,0.201,1.061,0.324,1.522c-0.244-0.466-0.503-0.875-0.771-1.243
			C107.145,9.01,107.293,8.915,107.444,8.826z"/>
	</g>
	<g>
		<path class="st2" d="M126.245,11.919l-0.032-0.038l-0.001,0.001c-4.396-5.078-11.558-6.465-17.425-3.761
			c-0.17,1.029-0.293,2.307-0.298,3.894c0.063,0.176,0.123,0.361,0.182,0.547l3.078-1.918c0.339-0.211,0.697,0.238,0.42,0.524
			c-1.234,1.273-1.971,2.273-1.806,2.116l0.849,3.099c0.091,0.333-0.343,0.549-0.554,0.275l-1.776-2.307
			c-1.238,0.726-2.262,1.689-3.028,2.549c-0.196,0.22-0.54-0.035-0.396-0.292c0.299-0.534,0.592-1.011,0.867-1.434
			c-1.379,0.97-3.27,1.897-5.444,1.887c-0.086,0.27-0.161,0.544-0.232,0.818c-0.026,0.1-0.055,0.2-0.079,0.301
			c-0.063,0.27-0.117,0.541-0.165,0.814c-0.015,0.087-0.03,0.175-0.044,0.262c-0.202,1.274-0.242,2.572-0.11,3.86
			c0.003,0.032,0.007,0.065,0.01,0.097c0.07,0.646,0.182,1.288,0.338,1.924c0.004,0.016,0.007,0.032,0.011,0.048
			c0.071,0.288,0.155,0.574,0.244,0.858c0.026,0.084,0.054,0.167,0.082,0.25c0.081,0.242,0.167,0.482,0.26,0.72
			c0.059,0.149,0.124,0.297,0.188,0.445c0.079,0.183,0.156,0.366,0.242,0.547c0.162,0.337,0.335,0.671,0.524,0.998
			c0.039,0.067,0.076,0.134,0.116,0.201c0.087,0.145,0.179,0.288,0.271,0.431c0.061,0.095,0.123,0.189,0.187,0.282
			c0.089,0.131,0.179,0.261,0.273,0.389c0.075,0.104,0.154,0.205,0.232,0.308c0.068,0.089,0.136,0.177,0.206,0.265l-0.004,0.004
			l-0.005,0.004l0.117,0.14l22.816-18.978C126.321,12.008,126.283,11.964,126.245,11.919z M116.808,9.106
			c-0.247-0.027-0.425-0.249-0.399-0.496c0.027-0.247,0.249-0.425,0.496-0.399c0.247,0.027,0.425,0.249,0.399,0.496
			C117.277,8.954,117.055,9.133,116.808,9.106z M117.739,10.298c-0.247-0.027-0.425-0.249-0.399-0.496
			c0.027-0.247,0.249-0.425,0.496-0.399c0.247,0.027,0.425,0.249,0.399,0.496C118.208,10.146,117.986,10.324,117.739,10.298z
			 M119.197,9.365c-0.247-0.027-0.425-0.249-0.399-0.496c0.027-0.247,0.249-0.425,0.496-0.399c0.247,0.027,0.425,0.249,0.399,0.496
			C119.666,9.214,119.444,9.392,119.197,9.365z M120.325,10.44c-0.247-0.027-0.425-0.249-0.399-0.496
			c0.027-0.247,0.249-0.425,0.496-0.399c0.247,0.027,0.425,0.249,0.399,0.496C120.794,10.289,120.572,10.467,120.325,10.44z"/>
	</g>
	<g>
		<path class="st2" d="M107.444,8.826c-0.15,0.089-0.298,0.184-0.446,0.279c0.268,0.368,0.527,0.776,0.771,1.243
			C107.645,9.886,107.53,9.371,107.444,8.826z"/>
	</g>
	<g>
		
			<ellipse transform="matrix(0.1078 -0.9942 0.9942 0.1078 95.6509 123.9012)" class="st0" cx="116.856" cy="8.659" rx="0.45" ry="0.45"/>
	</g>
	<g>
		
			<ellipse transform="matrix(0.1078 -0.9942 0.9942 0.1078 97.5253 126.5079)" class="st0" cx="119.246" cy="8.918" rx="0.45" ry="0.45"/>
	</g>
	<g>
		
			<ellipse transform="matrix(0.1078 -0.9942 0.9942 0.1078 97.4622 128.588)" class="st0" cx="120.373" cy="9.993" rx="0.45" ry="0.45"/>
	</g>
	<g>
		
			<ellipse transform="matrix(0.1078 -0.9942 0.9942 0.1078 95.2973 125.8901)" class="st0" cx="117.788" cy="9.851" rx="0.45" ry="0.45"/>
	</g>
</g>
</svg>